<svg xmlns="http://www.w3.org/2000/svg" xmlns:xlink="http://www.w3.org/1999/xlink" width="512" height="2002" viewBox="0 0 512 2002"><svg viewBox="0 0 512 512" width="512" height="512" id="linkedin" y="0"><path d="M437 0H75C33.648 0 0 33.648 0 75v362c0 41.352 33.648 75 75 75h362c41.352 0 75-33.648 75-75V75c0-41.352-33.648-75-75-75zM181 406h-60V196h60zm0-240h-60v-60h60zm210 240h-60V286c0-16.54-13.46-30-30-30s-30 13.46-30 30v120h-60V196h60v11.309C286.719 202.422 296.93 196 316 196c40.691.043 75 36.547 75 79.688zm0 0"></path></svg><svg width="485.211" height="485.211" viewBox="0 0 485.211 485.211" id="mail-black-envelope-symbol" y="512"><path d="M485.211 363.906c0 10.637-2.992 20.498-7.785 29.174L324.225 221.67l151.54-132.584c5.895 9.355 9.446 20.344 9.446 32.219v242.601zM242.606 252.793l210.863-184.5c-8.653-4.737-18.397-7.642-28.908-7.642H60.651c-10.524 0-20.271 2.905-28.889 7.642l210.844 184.5zm58.787-11.162l-48.809 42.734a15.145 15.145 0 0 1-9.978 3.729c-3.57 0-7.125-1.242-9.98-3.729l-48.82-42.736L28.667 415.23c9.299 5.834 20.197 9.329 31.983 9.329h363.911c11.784 0 22.687-3.495 31.983-9.329L301.393 241.631zM9.448 89.085C3.554 98.44 0 109.429 0 121.305v242.602c0 10.637 2.978 20.498 7.789 29.174l153.183-171.44L9.448 89.085z"></path></svg><svg viewBox="0 0 53 53" width="53" height="53" id="menu" y="998"><path d="M2 13.5h49a2 2 0 0 0 0-4H2a2 2 0 0 0 0 4zM2 28.5h49a2 2 0 0 0 0-4H2a2 2 0 0 0 0 4zM2 43.5h49a2 2 0 0 0 0-4H2a2 2 0 0 0 0 4z"></path></svg><svg width="512" height="512" viewBox="0 0 512 512" id="social-media" y="1051"><path d="M296.296 512H200.36V256h-64v-88.225l64-.029-.104-51.976C200.256 43.794 219.773 0 304.556 0h70.588v88.242h-44.115c-33.016 0-34.604 12.328-34.604 35.342l-.131 44.162h79.346l-9.354 88.225-69.926.029-.064 256z"></path></svg><svg width="438.542" height="438.543" viewBox="0 0 438.542 438.543" id="text" y="1563"><path d="M288.078 367.164c-12.748 0-23.887-2.95-33.4-8.85-7.427-4.381-12.368-10.089-14.842-17.132-2.673-6.852-4.001-23.223-4.001-49.115V179.58h103.921v-68.806H235.834V0h-62.53c-2.856 22.458-7.992 41.109-15.415 55.963-7.424 14.655-17.227 27.218-29.408 37.685-12.183 10.282-26.934 18.276-44.255 23.984v61.955h48.535v153.889c0 20.365 2.096 35.69 6.28 45.967 3.999 10.283 11.519 20.272 22.557 29.981 11.419 9.514 24.554 16.652 39.399 21.406 15.418 5.14 33.12 7.713 53.105 7.713 18.274 0 34.735-1.813 49.392-5.428 14.466-3.237 31.409-9.424 50.823-18.562V345.46c-21.892 14.473-43.968 21.704-66.239 21.704z"></path></svg></svg>